<?xml version="1.0" encoding="UTF-8" standalone="no"?>
<svg
   width="114.16558"
   height="128.40884"
   viewBox="0 0 114.16558 128.40884"
   fill="none"
   version="1.1"
   id="svg953"
   xmlns="http://www.w3.org/2000/svg"
   xmlns:svg="http://www.w3.org/2000/svg">
  <defs
     id="defs957" />
  <path
     d="m 79.6613,46.694057 c 0,6.7541 -5.4815,12.2294 -12.2434,12.2294 -6.7618,0 -12.2433,-5.4753 -12.2433,-12.2294 0,-6.7541 5.4815,-12.2294 12.2433,-12.2294 6.7619,0 12.2434,5.4753 12.2434,12.2294 z"
     fill="#ffc131"
     id="path939" />
  <ellipse
     cx="-46.826702"
     cy="-81.714561"
     rx="12.2434"
     ry="12.2294"
     transform="scale(-1)"
     fill="#24c8db"
     id="ellipse941" />
  <path
     fill-rule="evenodd"
     clip-rule="evenodd"
     d="m 92.7927,85.910457 c -4.9408,3.1896 -10.4154,5.4037 -16.1285,6.5551 1.1695,-3.368 1.8048,-6.9854 1.8048,-10.751 0,-1.3659 -0.0836,-2.7122 -0.2459,-4.0342 2.458,-0.8552 4.8178,-2.0034 7.0258,-3.4288 5.3131,-3.4299 9.5217,-8.3193 12.12,-14.0807 2.5984,-5.7614 3.4761,-12.1496 2.5273,-18.3971 -0.9486,-6.2475 -3.6831,-12.0885 -7.8749,-16.8212 -4.1917,-4.7327 -9.6625,-8.1557 -15.7548,-9.8578 -6.0924,-1.7021 -12.5472,-1.6109 -18.5889,0.2628 -6.0417,1.8737 -11.4132,5.45 -15.4692,10.2993 -0.5195,0.6212 -1.0146,1.2598 -1.4846,1.9144 -6.259,0.6946 -12.3211,2.464 -17.9272,5.2011 1.8248,-5.8351 4.7874,-11.2825 8.7463,-16.0157 5.772,-6.9009999 13.416,-11.9903899 22.0138,-14.6567499 8.5978,-2.66635698 17.7834,-2.79623998 26.4533,-0.37404 8.6699,2.4222 16.4552,7.29345 22.42,14.0283899 5.966,6.735 9.857,15.0472 11.207,23.9379 1.35,8.8906 0.101,17.9816 -3.597,26.1804 -3.697,8.1988 -9.686,15.1568 -17.2473,20.0379 z m -69.4394,-44.6224 11.4601,1.406 c 0.2728,-2.2187 0.7705,-4.3928 1.4793,-6.491 -4.5453,1.0419 -8.9071,2.757 -12.9394,5.085 z"
     fill="#ffc131"
     id="path943" />
  <path
     fill-rule="evenodd"
     clip-rule="evenodd"
     d="m 21.3728,42.498157 c 4.9779,-3.2136 10.4977,-5.4369 16.2573,-6.5809 -1.3021,3.5319 -2.013,7.3493 -2.013,11.3327 0,1.1914 0.0636,2.368 0.1876,3.5266 -2.4085,0.8499 -4.7214,1.9817 -6.8881,3.3805 -5.3131,3.4299 -9.5217,8.3193 -12.12,14.0807 -2.5984,5.7613 -3.476,12.1496 -2.5273,18.3971 0.9486,6.2475 3.6831,12.0885 7.8749,16.821303 4.1917,4.733 9.6624,8.156 15.7548,9.858 6.0924,1.702 12.5472,1.611 18.5889,-0.263 6.0417,-1.874 11.4132,-5.45 15.4692,-10.299 0.5221,-0.625 1.0195,-1.267 1.4917,-1.925 6.2642,-0.705 12.3284,-2.486403 17.9344,-5.236803 -1.8235,5.852803 -4.7913,11.315803 -8.7606,16.061803 -5.772,6.901 -13.4161,11.99 -22.0138,14.657 -8.5978,2.666 -17.7835,2.796 -26.4533,0.374 -8.6699,-2.423 -16.4552,-7.294 -22.4204,-14.029 -5.9651702,-6.735 -9.8565402,-15.047003 -11.20650718,-23.937703 -1.349968,-8.8907 -0.10111,-17.9816 3.59651698,-26.1804 3.69763,-8.1989 9.6866902,-15.1568 17.2476902,-20.0379 z m 69.3738,44.6143 h -1e-4 c -0.0993,0.0574 -0.1988,0.1144 -0.2985,0.1711 0.0997,-0.0567 0.1993,-0.1137 0.2986,-0.1711 z m -11.9301,4.8463 c -0.3116,0.0788 -0.6239,0.1544 -0.9369,0.2267 0,1e-4 -1e-4,1e-4 -1e-4,1e-4 0.3132,-0.0724 0.6256,-0.1481 0.937,-0.2268 z"
     fill="#24c8db"
     id="path945" />
</svg>
