<?xml version="1.0" encoding="UTF-8" standalone="no"?>
<!-- Generator: Adobe Illustrator 23.0.4, SVG Export Plug-In . SVG Version: 6.00 Build 0)  -->

<svg
   version="1.1"
   id="Layer_1"
   x="0px"
   y="0px"
   viewBox="0 0 97.199997 97.199997"
   xml:space="preserve"
   sodipodi:docname="pw-logo.svg"
   width="97.199997"
   height="97.199997"
   xmlns:inkscape="http://www.inkscape.org/namespaces/inkscape"
   xmlns:sodipodi="http://sodipodi.sourceforge.net/DTD/sodipodi-0.dtd"
   xmlns="http://www.w3.org/2000/svg"
   xmlns:svg="http://www.w3.org/2000/svg"><defs
   id="defs1535" /><sodipodi:namedview
   id="namedview1533"
   pagecolor="#ffffff"
   bordercolor="#000000"
   borderopacity="0.25"
   inkscape:showpageshadow="2"
   inkscape:pageopacity="0.0"
   inkscape:pagecheckerboard="0"
   inkscape:deskcolor="#d1d1d1"
   showgrid="false" />
<style
   type="text/css"
   id="style1484">
	.st0{fill:#0080FF;}
</style>
<g
   id="g1488"
   transform="translate(-9.6,-10.3)">
	<path
   class="st0"
   d="M 58.2,107.5 C 31.4,107.5 9.6,85.7 9.6,58.9 9.6,32.1 31.4,10.3 58.2,10.3 c 26.8,0 48.6,21.8 48.6,48.6 0,26.8 -21.8,48.6 -48.6,48.6 z m 0,-92.2 c -24,0 -43.5,19.5 -43.5,43.5 0,24 19.5,43.5 43.5,43.5 24,0 43.5,-19.5 43.5,-43.5 0,-23.9 -19.5,-43.5 -43.5,-43.5 z"
   id="path1486" />
</g>
<g
   id="g1494"
   transform="translate(-9.6,-10.3)">
	<g
   id="g1492">
		<path
   d="m 71.2,58.4 c -1.2,0 -2.2,1 -2.2,2.2 v 13.8 l -8.5,-8.8 c -0.9,-0.9 -1.3,-1.2 -2.2,-1.2 -0.9,0 -1.3,0.3 -2.2,1.2 l -8.7,8.8 V 60.7 c 0,0 0,0 0,-0.1 v -5.5 h 16.5 c 5.3,0 9.7,-4.3 9.7,-9.7 0,-5.3 -4.3,-9.7 -9.7,-9.7 H 45.1 c -1.2,0 -2.2,1 -2.2,2.2 v 22.7 3.2 15.9 c 0,1.2 1,2.2 2.2,2.2 0.9,0 1.3,-0.3 2.2,-1.2 l 10.8,-11 10.8,11 c 0.9,0.9 1.3,1.2 2.2,1.2 1.2,0 2.2,-1 2.2,-2.2 v -19 c 0.1,-1.3 -0.9,-2.3 -2.1,-2.3 z M 47.3,40 h 16.5 c 3.1,0 5.2,2.6 5.2,5.4 0,2.8 -2.1,5.4 -5.2,5.4 H 47.3 Z"
   id="path1490" />
	</g>
</g>

</svg>
