<?xml version="1.0" encoding="UTF-8" standalone="no"?>
<svg
   width="16.1682"
   height="15.9221"
   viewBox="0 0 16.1682 15.9221"
   fill="none"
   version="1.1"
   id="svg4"
   sodipodi:docname="6328bfdf2ce81939b04c1f73_sibi-light.svg"
   xmlns:inkscape="http://www.inkscape.org/namespaces/inkscape"
   xmlns:sodipodi="http://sodipodi.sourceforge.net/DTD/sodipodi-0.dtd"
   xmlns="http://www.w3.org/2000/svg"
   xmlns:svg="http://www.w3.org/2000/svg">
  <sodipodi:namedview
     id="namedview4"
     pagecolor="#ffffff"
     bordercolor="#999999"
     borderopacity="1"
     inkscape:showpageshadow="2"
     inkscape:pageopacity="0"
     inkscape:pagecheckerboard="0"
     inkscape:deskcolor="#d1d1d1">
    <inkscape:page
       x="0"
       y="0"
       width="16.1682"
       height="15.9221"
       id="page2"
       margin="0"
       bleed="0" />
  </sodipodi:namedview>
  <g
     clip-path="url(#clip0_142_3693)"
     id="g4">
    <path
       d="M 30.0737,0.271186 V 15.633 c 0,0.1498 -0.1225,0.2712 -0.2735,0.2712 h -2.421 c -0.1511,0 -0.2735,-0.1214 -0.2735,-0.2712 V 0.271186 C 27.1057,0.121414 27.2281,0 27.3792,0 h 2.421 c 0.151,0 0.2735,0.121414 0.2735,0.271186 z"
       fill="#ffffff"
       id="path1" />
    <path
       d="M 69.9118,0.271186 V 15.633 c 0,0.1498 -0.1224,0.2712 -0.2735,0.2712 h -2.421 c -0.151,0 -0.2735,-0.1214 -0.2735,-0.2712 V 0.271186 C 66.9438,0.121414 67.0663,0 67.2173,0 h 2.421 c 0.1511,0 0.2735,0.121414 0.2735,0.271186 z"
       fill="#ffffff"
       id="path2" />
    <path
       d="m 9.06339,6.63983 c -1.3461,0 -2.69277,-0.01194 -4.03887,0 C 3.90161,6.65007 2.85599,5.80349 2.85599,4.65842 c 0,-0.76528 0.466,-1.4231 1.14944,-1.76082 C 4.37684,2.71395 4.74941,2.67984 5.13467,2.67415 H 15.1462 c 0.151,0 0.2734,-0.12141 0.2734,-0.27118 V 0.289613 c 0,-0.149772 -0.1224,-0.2711867 -0.2734,-0.2711867 H 10.7123 7.1394 c -1.48336,0 -3.05035,-0.1671553 -4.42067,0.5054467 C 1.64658,1.05036 0.799355,1.98051 0.39218,3.09261 0.208778,3.59408 0.115924,4.12568 0.115924,4.65842 c 0,1.21329 0.495415,2.39305 1.364556,3.25157 0.3645,0.36046 0.79589,0.64702 1.26247,0.86364 0.67478,0.31327 1.36859,0.52023 2.11835,0.52648 0.78782,0.00682 1.57218,-0.00569 2.35942,5.7e-4 1.34668,0 2.69336,0.01251 4.03948,0 1.1223,-0.01024 2.1685,0.83632 2.1685,1.98142 0,0.7658 -0.4666,1.4237 -1.15,1.7608 -0.3714,0.1837 -0.7446,0.2178 -1.1304,0.2229 H 0.273438 C 0.122422,13.2658 0,13.3872 0,13.537 v 2.1139 c 0,0.1498 0.122422,0.2712 0.273438,0.2712 H 6.1157 c 0.93777,-6e-4 1.87554,-6e-4 2.81274,-0.0012 0.66151,0 1.32306,0 1.98456,-5e-4 0.7884,-0.0012 1.5774,-0.041 2.3167,-0.3366 0.5739,-0.2297 1.0999,-0.5725 1.5405,-1.0018 0.8893,-0.8671 1.398,-2.0667 1.398,-3.2999 0,-2.48403 -1.9851,-4.49444 -4.4737,-4.63999 0,0 -2.63226,0 -2.63111,-0.00228 z"
       fill="white"
       id="path3"
       style="fill:#1a1a1a" />
    <path
       d="m 50.3364,13.6652 h -6.0606 c -0.151,0 -0.2734,-0.1214 -0.2734,-0.2712 V 9.3766 c 0,-0.14977 0.1224,-0.27118 0.2734,-0.27118 h 1.0938 1.5527 c 1.1825,0.00227 2.0826,0.00351 3.2669,0.00227 2.1814,-0.00227 2.7059,1.01091 2.7059,2.15601 0,0.7658 -0.4419,2.4015 -2.5587,2.4015 z M 44.2758,2.38511 h 2.7429 c 1.1825,0.00227 1.8094,0.01421 2.9934,0.00227 0.9882,-0.01023 2.142,0.74308 2.142,2.25261 0,1.26746 -0.8497,2.25488 -2.2389,2.25488 h -5.6394 c -0.151,0 -0.2734,-0.12142 -0.2734,-0.27119 V 5.2102605 2.6563 c 0,-0.14978 0.1224,-0.27119 0.2734,-0.27119 z m 9.1636,5.16651 C 54.74,6.8447 55.2729,5.27929 55.2729,3.98071 55.2729,1.41311 52.9528,0.103055 50.651,0.0509518 49.0366,0.0144083 47.4575,0 45.8407,0 h -2.4599 -2.0961 c -0.151,0 -0.2735,0.121414 -0.2735,0.271186 V 15.6325 c 0,0.1497 0.1225,0.2712 0.2735,0.2712 h 9.1628 c 4.2941,0 5.2709,-1.6034 5.5301,-4.0988 0.0193,-0.1791 0.0315,-0.3605 0.0284,-0.5412 C 55.9776,9.5595 54.8616,7.94315 53.4394,7.55162 Z"
       fill="#ffffff"
       id="path4"
       sodipodi:nodetypes="ssssscccsssccsssscsscssscsssssccc" />
  </g>
  <defs
     id="defs4">
    <clipPath
       id="clip0_142_3693">
      <rect
         width="70"
         height="16"
         fill="#ffffff"
         id="rect4"
         x="0"
         y="0" />
    </clipPath>
  </defs>
</svg>
