<?xml version="1.0" encoding="UTF-8" standalone="no"?>
<!-- Generator: Adobe Illustrator 19.2.1, SVG Export Plug-In . SVG Version: 6.00 Build 0)  -->

<svg
   version="1.1"
   id="Layer_1"
   x="0px"
   y="0px"
   viewBox="0 0 67.290436 71.262596"
   xml:space="preserve"
   width="67.290436"
   height="71.262596"
   xmlns="http://www.w3.org/2000/svg"
   xmlns:svg="http://www.w3.org/2000/svg"><defs
   id="defs1482" />
<style
   type="text/css"
   id="style1448">
	.st0{fill:#8759F2;}
	.st1{fill:#FF3E80;}
	.st2{fill:#FFC300;}
	.st3{fill:#00D4E6;}
	.st4{fill:#221B43;}
</style>
<title
   id="title1450">Logo_Color_Horizontal</title>
<g
   id="Logo_Color_Horizontal"
   transform="translate(-6.3547832,-5)">
	<path
   class="st0"
   d="M 40.2,50.4 26.9,27.3 H 13.5 C 8,27.3 4.6,33.3 7.3,38 l 20,34.7 c 2.7,4.7 9.6,4.8 12.4,0 L 52.6,50.4 c -2.7,4.8 -9.6,4.7 -12.4,0 z"
   id="path1452" />
	<path
   class="st1"
   d="M 53.6,27.3 H 26.9 l 13.3,23.1 c 2.7,4.7 9.6,4.8 12.4,0 L 59.8,38 C 62.5,33.2 59,27.3 53.6,27.3 Z"
   id="path1454" />
	<path
   class="st2"
   d="M 66.5,5 H 26.4 c -5.5,0 -8.9,5.9 -6.2,10.7 l 6.7,11.6 h 26.7 c 5.5,0 8.9,6 6.2,10.7 L 72.7,15.7 C 75.4,11 72,5 66.5,5 Z"
   id="path1456" />
	<path
   class="st3"
   d="m 20.2,15.7 c -1.3,-2.2 -1.3,-4.9 0,-7.1 L 7.3,30.9 c 1.3,-2.2 3.6,-3.6 6.2,-3.6 h 13.4 z"
   id="path1458" />
	
	
	
	
	
	
	
	
	
</g>
</svg>
